<svg width="1920" height="774" viewBox="0 0 1920 774" fill="none" xmlns="http://www.w3.org/2000/svg">
<path opacity="0.8" fill-rule="evenodd" clip-rule="evenodd" d="M1920 0H7.62939e-05V598.561C-21.6345 598.571 -33.3531 598.578 -33.3531 598.578L-85.355 773.837C-85.355 773.837 76.2622 672.374 411.3 697.65C514.055 705.402 605.177 716.895 687.086 727.227C811.915 742.972 915.345 756.018 1005.94 749.006C1049.89 745.604 1088.48 739.596 1129.74 733.171C1229.34 717.66 1344.52 699.724 1588.31 710.188C1934.43 725.079 2009.69 673.563 2009.69 673.563C2009.69 673.563 1947.14 607.311 1947.4 602.355C1947.38 602.011 1937.81 601.697 1920 601.41V0Z" fill="#1ACEDF"/>
</svg>
