<svg width="28" height="26" viewBox="0 0 28 26" fill="none" xmlns="http://www.w3.org/2000/svg">
<path d="M27.9871 8.57598C27.9828 8.53829 27.9763 8.50383 27.9645 8.46721C27.9537 8.43383 27.9386 8.40475 27.9214 8.37567C27.9042 8.3466 27.888 8.3186 27.8654 8.29167C27.8428 8.26367 27.8148 8.24106 27.7846 8.21844C27.7674 8.20444 27.7588 8.18721 27.7394 8.17644L16.1248 1.2066C14.9348 0.491519 13.0674 0.491519 11.8774 1.2066L0.262769 8.17644C0.244462 8.18721 0.233692 8.20444 0.217538 8.21844C0.187385 8.24106 0.159385 8.26367 0.135692 8.29167C0.113077 8.3186 0.0958462 8.34659 0.0796923 8.37675C0.0624615 8.40583 0.0473846 8.43706 0.0366154 8.46829C0.0247692 8.50383 0.0193846 8.53829 0.0150769 8.57706C0.00969231 8.59752 0 8.61583 0 8.63736V22.6374C0 24.1214 1.20831 25.3297 2.69231 25.3297H25.3077C26.7917 25.3297 28 24.1214 28 22.6374V8.63736C28 8.61583 27.9903 8.59752 27.9871 8.57598ZM12.4298 2.1306C13.2806 1.61906 14.7183 1.61906 15.5691 2.1306L26.9231 8.94213V8.96044L16.3692 15.2927L23.7914 19.7857C24.0455 19.9407 24.1274 20.2703 23.9745 20.5266C23.8722 20.6935 23.6945 20.7861 23.5125 20.7861C23.4177 20.7861 23.3218 20.7614 23.2346 20.7086L15.2202 15.8571C14.4523 16.1037 13.5509 16.1037 12.782 15.8571L4.76862 20.7086C4.68139 20.7614 4.58554 20.7861 4.49077 20.7861C4.30877 20.7861 4.13108 20.6935 4.02985 20.5266C3.87585 20.2724 3.95769 19.9418 4.21185 19.7857L11.634 15.2927L1.08015 8.96044V8.94213L12.4298 2.1306Z" fill="#1ACEDF"/>
</svg>
