<svg width="136" height="136" viewBox="0 0 136 136" fill="none" xmlns="http://www.w3.org/2000/svg">
<circle cx="67.617" cy="67.617" r="65.617" fill="white" stroke="#1ACEDF" stroke-width="4"/>
<path d="M96.9732 58.8362C96.9643 58.7581 96.9509 58.6867 96.9264 58.6109C96.9041 58.5417 96.8728 58.4815 96.8372 58.4212C96.8015 58.361 96.768 58.303 96.7212 58.2472C96.6743 58.1892 96.6163 58.1424 96.5538 58.0955C96.5182 58.0665 96.5003 58.0309 96.4602 58.0085L72.4013 43.571C69.9363 42.0898 66.0682 42.0898 63.6032 43.571L39.5443 58.0085C39.5064 58.0309 39.4841 58.0665 39.4506 58.0955C39.3882 58.1424 39.3302 58.1892 39.2811 58.2472C39.2342 58.303 39.1985 58.361 39.1651 58.4235C39.1294 58.4837 39.0982 58.5484 39.0758 58.6131C39.0513 58.6867 39.0402 58.7581 39.0312 58.8384C39.0201 58.8808 39 58.9187 39 58.9633V87.9633C39 91.0373 41.5029 93.5402 44.5769 93.5402H91.4231C94.4971 93.5402 97 91.0373 97 87.9633V58.9633C97 58.9187 96.9799 58.8808 96.9732 58.8362ZM64.7475 45.485C66.5098 44.4254 69.4879 44.4254 71.2502 45.485L94.7692 59.5946V59.6325L72.9077 72.7495L88.2822 82.0562C88.8086 82.3775 88.9781 83.0601 88.6614 83.591C88.4495 83.9368 88.0814 84.1286 87.7044 84.1286C87.5081 84.1286 87.3095 84.0773 87.1288 83.968L70.5275 73.9184C68.9369 74.4292 67.0698 74.4292 65.477 73.9184L48.8778 83.968C48.6972 84.0773 48.4986 84.1286 48.3023 84.1286C47.9253 84.1286 47.5572 83.9368 47.3475 83.591C47.0285 83.0645 47.1981 82.3797 47.7245 82.0562L63.099 72.7495L41.2375 59.6325V59.5946L64.7475 45.485Z" fill="#1ACEDF"/>
</svg>
